<svg width="40" height="40" viewBox="0 0 40 40" fill="none" xmlns="http://www.w3.org/2000/svg">
<path opacity="0.4" d="M6.11719 4.1665V24.1165C6.11719 25.7498 6.88385 27.2998 8.20052 28.2832L16.8838 34.7832C18.7338 36.1665 21.2838 36.1665 23.1338 34.7832L31.8172 28.2832C33.1338 27.2998 33.9005 25.7498 33.9005 24.1165V4.1665H6.11719Z" fill="#171717"/>
<path d="M36.6673 5.4165H3.33398C2.65065 5.4165 2.08398 4.84984 2.08398 4.1665C2.08398 3.48317 2.65065 2.9165 3.33398 2.9165H36.6673C37.3507 2.9165 37.9173 3.48317 37.9173 4.1665C37.9173 4.84984 37.3507 5.4165 36.6673 5.4165Z" fill="#171717"/>
<path d="M26.6673 14.5835H13.334C12.6507 14.5835 12.084 14.0168 12.084 13.3335C12.084 12.6502 12.6507 12.0835 13.334 12.0835H26.6673C27.3507 12.0835 27.9173 12.6502 27.9173 13.3335C27.9173 14.0168 27.3507 14.5835 26.6673 14.5835Z" fill="#171717"/>
<path d="M26.6673 22.9165H13.334C12.6507 22.9165 12.084 22.3498 12.084 21.6665C12.084 20.9832 12.6507 20.4165 13.334 20.4165H26.6673C27.3507 20.4165 27.9173 20.9832 27.9173 21.6665C27.9173 22.3498 27.3507 22.9165 26.6673 22.9165Z" fill="#171717"/>
</svg>
