<svg width="40" height="40" viewBox="0 0 40 40" fill="none" xmlns="http://www.w3.org/2000/svg">
<path d="M27.9164 5.93349V3.3335C27.9164 2.65016 27.3497 2.0835 26.6664 2.0835C25.9831 2.0835 25.4164 2.65016 25.4164 3.3335V5.8335H14.5831V3.3335C14.5831 2.65016 14.0164 2.0835 13.3331 2.0835C12.6497 2.0835 12.0831 2.65016 12.0831 3.3335V5.93349C7.58306 6.35016 5.39973 9.03349 5.0664 13.0168C5.03306 13.5002 5.43306 13.9002 5.89973 13.9002H34.0997C34.5831 13.9002 34.9831 13.4835 34.9331 13.0168C34.5997 9.03349 32.4164 6.35016 27.9164 5.93349Z" fill="#171717"/>
<path opacity="0.4" d="M33.3333 16.3999C34.25 16.3999 35 17.1499 35 18.0666V28.3332C35 33.3332 32.5 36.6666 26.6667 36.6666H13.3333C7.5 36.6666 5 33.3332 5 28.3332V18.0666C5 17.1499 5.75 16.3999 6.66667 16.3999H33.3333Z" fill="#171717"/>
<path d="M14.1667 25C13.7333 25 13.3 24.8166 12.9833 24.5166C12.6833 24.1999 12.5 23.7666 12.5 23.3333C12.5 22.9 12.6833 22.4666 12.9833 22.15C13.45 21.6833 14.1833 21.5333 14.8 21.7999C15.0167 21.8833 15.2 22 15.35 22.15C15.65 22.4666 15.8333 22.9 15.8333 23.3333C15.8333 23.7666 15.65 24.1999 15.35 24.5166C15.0333 24.8166 14.6 25 14.1667 25Z" fill="#171717"/>
<path d="M20.0007 25C19.5673 25 19.134 24.8166 18.8173 24.5166C18.5173 24.1999 18.334 23.7666 18.334 23.3333C18.334 22.9 18.5173 22.4666 18.8173 22.15C18.9673 22 19.1506 21.8833 19.3673 21.7999C19.984 21.5333 20.7173 21.6833 21.184 22.15C21.484 22.4666 21.6673 22.9 21.6673 23.3333C21.6673 23.7666 21.484 24.1999 21.184 24.5166C21.1006 24.5833 21.0173 24.6499 20.934 24.7166C20.834 24.7833 20.734 24.8333 20.634 24.8666C20.534 24.9166 20.434 24.95 20.334 24.9666C20.2173 24.9833 20.1173 25 20.0007 25Z" fill="#171717"/>
<path d="M25.8327 24.9999C25.3993 24.9999 24.966 24.8165 24.6494 24.5165C24.3494 24.1998 24.166 23.7665 24.166 23.3332C24.166 22.8999 24.3494 22.4665 24.6494 22.1499C24.816 21.9999 24.9827 21.8832 25.1993 21.7998C25.4993 21.6665 25.8327 21.6332 26.166 21.6998C26.266 21.7165 26.366 21.7498 26.466 21.7998C26.566 21.8332 26.666 21.8832 26.766 21.9499C26.8494 22.0165 26.9327 22.0832 27.016 22.1499C27.316 22.4665 27.4993 22.8999 27.4993 23.3332C27.4993 23.7665 27.316 24.1998 27.016 24.5165C26.9327 24.5832 26.8494 24.6498 26.766 24.7165C26.666 24.7832 26.566 24.8332 26.466 24.8665C26.366 24.9165 26.266 24.9499 26.166 24.9665C26.0494 24.9832 25.9327 24.9999 25.8327 24.9999Z" fill="#171717"/>
<path d="M14.1667 30.8334C13.95 30.8334 13.7333 30.7834 13.5333 30.7C13.3167 30.6167 13.15 30.5 12.9833 30.35C12.6833 30.0333 12.5 29.6 12.5 29.1667C12.5 28.7334 12.6833 28.3 12.9833 27.9834C13.15 27.8334 13.3167 27.7167 13.5333 27.6333C13.8333 27.5 14.1667 27.4667 14.5 27.5333C14.6 27.55 14.7 27.5833 14.8 27.6333C14.9 27.6667 15 27.7167 15.1 27.7834C15.1833 27.85 15.2667 27.9167 15.35 27.9834C15.65 28.3 15.8333 28.7334 15.8333 29.1667C15.8333 29.6 15.65 30.0333 15.35 30.35C15.2667 30.4167 15.1833 30.5 15.1 30.55C15 30.6167 14.9 30.6667 14.8 30.7C14.7 30.75 14.6 30.7834 14.5 30.8C14.3833 30.8167 14.2833 30.8334 14.1667 30.8334Z" fill="#171717"/>
<path d="M20.0007 30.8335C19.5673 30.8335 19.134 30.6501 18.8173 30.3501C18.5173 30.0335 18.334 29.6001 18.334 29.1668C18.334 28.7335 18.5173 28.3002 18.8173 27.9835C19.434 27.3668 20.5673 27.3668 21.184 27.9835C21.484 28.3002 21.6673 28.7335 21.6673 29.1668C21.6673 29.6001 21.484 30.0335 21.184 30.3501C20.8673 30.6501 20.434 30.8335 20.0007 30.8335Z" fill="#171717"/>
<path d="M25.8327 30.8335C25.3993 30.8335 24.966 30.6501 24.6494 30.3501C24.3494 30.0335 24.166 29.6001 24.166 29.1668C24.166 28.7335 24.3494 28.3002 24.6494 27.9835C25.266 27.3668 26.3993 27.3668 27.016 27.9835C27.316 28.3002 27.4993 28.7335 27.4993 29.1668C27.4993 29.6001 27.316 30.0335 27.016 30.3501C26.6993 30.6501 26.266 30.8335 25.8327 30.8335Z" fill="#171717"/>
</svg>
