<svg width="40" height="40" viewBox="0 0 40 40" fill="none" xmlns="http://www.w3.org/2000/svg">
<path d="M36.6673 37.9165H3.33398C2.65065 37.9165 2.08398 37.3498 2.08398 36.6665C2.08398 35.9832 2.65065 35.4165 3.33398 35.4165H36.6673C37.3507 35.4165 37.9173 35.9832 37.9173 36.6665C37.9173 37.3498 37.3507 37.9165 36.6673 37.9165Z" fill="#171717"/>
<path opacity="0.4" d="M34.9993 16.6331V36.6665H4.91602L4.99935 16.6165C4.99935 15.5998 5.46602 14.6332 6.28268 13.9999L17.9493 4.9332C19.1493 3.9832 20.8493 3.9832 22.0493 4.9332L24.2827 6.6665L31.666 12.3998L33.716 13.9999C34.5327 14.6332 34.9993 15.5998 34.9993 16.6331Z" fill="#171717"/>
<path d="M21.6673 28.3335H18.334C16.9507 28.3335 15.834 29.4502 15.834 30.8335V36.6668H24.1673V30.8335C24.1673 29.4502 23.0507 28.3335 21.6673 28.3335Z" fill="#171717"/>
<path d="M15.834 22.9168H12.5007C11.584 22.9168 10.834 22.1668 10.834 21.2502V18.7502C10.834 17.8335 11.584 17.0835 12.5007 17.0835H15.834C16.7507 17.0835 17.5007 17.8335 17.5007 18.7502V21.2502C17.5007 22.1668 16.7507 22.9168 15.834 22.9168Z" fill="#171717"/>
<path d="M27.5 22.9168H24.1667C23.25 22.9168 22.5 22.1668 22.5 21.2502V18.7502C22.5 17.8335 23.25 17.0835 24.1667 17.0835H27.5C28.4167 17.0835 29.1667 17.8335 29.1667 18.7502V21.2502C29.1667 22.1668 28.4167 22.9168 27.5 22.9168Z" fill="#171717"/>
<path d="M31.6665 12.3998L24.2832 6.6665H29.9665C30.8832 6.6665 31.6332 7.39982 31.6332 8.31649L31.6665 12.3998Z" fill="#171717"/>
</svg>
