<svg width="40" height="40" viewBox="0 0 40 40" fill="none" xmlns="http://www.w3.org/2000/svg">
<path opacity="0.4" d="M3.33398 21.4667V18.5334C3.33398 16.8001 4.75065 15.3667 6.50065 15.3667C9.51732 15.3667 10.7507 13.2334 9.23398 10.6167C8.36732 9.11672 8.88398 7.16672 10.4007 6.30006L13.284 4.65006C14.6007 3.86672 16.3007 4.33339 17.084 5.65006L17.2673 5.96672C18.7673 8.58339 21.234 8.58339 22.7507 5.96672L22.934 5.65006C23.7173 4.33339 25.4173 3.86672 26.734 4.65006L29.6173 6.30006C31.134 7.16672 31.6507 9.11672 30.784 10.6167C29.2673 13.2334 30.5007 15.3667 33.5173 15.3667C35.2507 15.3667 36.684 16.7834 36.684 18.5334V21.4667C36.684 23.2001 35.2673 24.6334 33.5173 24.6334C30.5007 24.6334 29.2673 26.7667 30.784 29.3834C31.6507 30.9001 31.134 32.8334 29.6173 33.7001L26.734 35.3501C25.4173 36.1334 23.7173 35.6667 22.934 34.3501L22.7507 34.0334C21.2507 31.4167 18.784 31.4167 17.2673 34.0334L17.084 34.3501C16.3007 35.6667 14.6007 36.1334 13.284 35.3501L10.4007 33.7001C8.88398 32.8334 8.36732 30.8834 9.23398 29.3834C10.7507 26.7667 9.51732 24.6334 6.50065 24.6334C4.75065 24.6334 3.33398 23.2001 3.33398 21.4667Z" fill="#171717"/>
<path d="M20.0007 25.4168C22.9922 25.4168 25.4173 22.9917 25.4173 20.0002C25.4173 17.0086 22.9922 14.5835 20.0007 14.5835C17.0091 14.5835 14.584 17.0086 14.584 20.0002C14.584 22.9917 17.0091 25.4168 20.0007 25.4168Z" fill="#171717"/>
</svg>
