<?xml version="1.0" standalone="no"?>
<!DOCTYPE svg PUBLIC "-//W3C//DTD SVG 20010904//EN"
 "http://www.w3.org/TR/2001/REC-SVG-20010904/DTD/svg10.dtd">
<svg version="1.0" xmlns="http://www.w3.org/2000/svg"
 width="507.000000pt" height="492.000000pt" viewBox="0 0 507.000000 492.000000"
 preserveAspectRatio="xMidYMid meet">

<g transform="translate(0.000000,492.000000) scale(0.100000,-0.100000)"
fill="#B24F4F" stroke="none">
<path d="M2281 4504 c-275 -40 -563 -149 -795 -300 -470 -309 -773 -767 -878
-1329 -31 -171 -32 -506 0 -675 83 -445 274 -800 596 -1107 367 -351 849 -543
1358 -543 235 0 444 35 665 111 62 22 117 39 123 39 5 0 31 -15 57 -34 123
-87 226 -119 383 -119 97 0 128 4 196 27 189 61 337 206 412 404 23 60 26 82
26 207 1 158 -14 222 -79 330 l-34 57 50 104 c225 468 256 1012 84 1519 -41
120 -144 327 -220 440 -324 482 -803 783 -1382 870 -128 19 -430 18 -562 -1z
m499 -185 c203 -25 402 -85 582 -175 764 -383 1150 -1233 938 -2065 -30 -118
-102 -306 -132 -345 -6 -8 -30 0 -81 27 -105 54 -182 73 -307 72 -178 0 -318
-60 -451 -192 -154 -154 -219 -372 -174 -584 8 -38 26 -94 40 -124 14 -31 25
-59 25 -64 0 -4 -51 -24 -112 -44 -760 -241 -1580 48 -2027 714 -305 453 -385
1032 -214 1556 105 324 311 623 573 834 280 225 577 349 945 394 68 9 316 6
395 -4z m1151 -2558 c264 -68 442 -298 442 -571 0 -330 -259 -590 -589 -590
-267 0 -502 186 -570 451 -24 94 -15 252 19 341 70 182 233 328 418 373 81 19
195 18 280 -4z"/>
<path d="M2520 3410 c0 -88 -3 -122 -12 -124 -7 -2 -51 -11 -98 -20 -109 -20
-196 -64 -260 -132 -78 -82 -95 -128 -95 -254 0 -92 3 -111 25 -153 28 -57 99
-126 161 -158 24 -12 96 -39 159 -59 l115 -37 3 -273 c1 -151 -1 -277 -6 -282
-9 -9 -137 14 -198 35 -62 23 -145 66 -187 99 -20 17 -44 28 -52 24 -8 -3 -25
-27 -39 -54 l-25 -49 39 -32 c89 -72 230 -125 380 -145 l85 -12 3 -117 3 -117
54 0 55 0 0 118 0 119 79 11 c195 28 318 109 384 252 16 35 20 66 20 140 0
115 -18 163 -87 233 -58 58 -140 98 -283 138 l-113 32 0 284 0 283 28 0 c26
-1 104 -18 167 -38 17 -5 63 -26 104 -46 40 -21 75 -36 77 -34 2 2 15 29 28
60 l25 57 -44 25 c-62 37 -206 83 -302 96 l-83 12 0 119 0 119 -55 0 -55 0 0
-120z m-2 -518 c3 -295 9 -276 -76 -247 -166 58 -233 130 -233 251 0 95 60
183 150 222 42 17 132 41 146 38 6 -2 11 -100 13 -264z m203 -471 c72 -24 148
-64 178 -92 83 -79 78 -231 -10 -316 -44 -41 -135 -81 -204 -89 l-55 -7 0 262
c0 297 -8 276 91 242z"/>
<path d="M3482 1211 c-8 -5 -12 -17 -10 -27 3 -18 19 -19 309 -22 264 -2 308
0 319 13 10 12 10 18 0 30 -11 13 -57 15 -309 15 -163 0 -302 -4 -309 -9z"/>
</g>
</svg>
