<svg width="40" height="40" viewBox="0 0 40 40" fill="none" xmlns="http://www.w3.org/2000/svg">
<path opacity="0.4" d="M26.984 3.3335H13.0173C6.95065 3.3335 3.33398 6.95016 3.33398 13.0168V26.9835C3.33398 33.0502 6.95065 36.6668 13.0173 36.6668H26.984C33.0507 36.6668 36.6673 33.0502 36.6673 26.9835V13.0168C36.6673 6.95016 33.0507 3.3335 26.984 3.3335Z" fill="#171717"/>
<path d="M30.5176 14.7837C30.5176 15.467 29.9676 16.0337 29.2676 16.0337H20.5176C19.8342 16.0337 19.2676 15.467 19.2676 14.7837C19.2676 14.1004 19.8342 13.5337 20.5176 13.5337H29.2676C29.9676 13.5337 30.5176 14.1004 30.5176 14.7837Z" fill="#171717"/>
<path d="M16.6182 13.1668L12.8682 16.9168C12.6182 17.1668 12.3016 17.2834 11.9849 17.2834C11.6682 17.2834 11.3349 17.1668 11.1016 16.9168L9.85156 15.6668C9.35156 15.1834 9.35156 14.3834 9.85156 13.9001C10.3349 13.4168 11.1182 13.4168 11.6182 13.9001L11.9849 14.2668L14.8516 11.4001C15.3349 10.9168 16.1182 10.9168 16.6182 11.4001C17.1016 11.8834 17.1016 12.6834 16.6182 13.1668Z" fill="#171717"/>
<path d="M30.5176 26.4502C30.5176 27.1335 29.9676 27.7002 29.2676 27.7002H20.5176C19.8342 27.7002 19.2676 27.1335 19.2676 26.4502C19.2676 25.7669 19.8342 25.2002 20.5176 25.2002H29.2676C29.9676 25.2002 30.5176 25.7669 30.5176 26.4502Z" fill="#171717"/>
<path d="M16.6182 24.8333L12.8682 28.5833C12.6182 28.8333 12.3016 28.9499 11.9849 28.9499C11.6682 28.9499 11.3349 28.8333 11.1016 28.5833L9.85156 27.3333C9.35156 26.8499 9.35156 26.0499 9.85156 25.5666C10.3349 25.0833 11.1182 25.0833 11.6182 25.5666L11.9849 25.9333L14.8516 23.0666C15.3349 22.5833 16.1182 22.5833 16.6182 23.0666C17.1016 23.5499 17.1016 24.3499 16.6182 24.8333Z" fill="#171717"/>
</svg>
