<svg width="40" height="40" viewBox="0 0 40 40" fill="none" xmlns="http://www.w3.org/2000/svg">
<path d="M20 22.9168C19.3167 22.9168 18.75 22.3502 18.75 21.6668V13.3335C18.75 12.6502 19.3167 12.0835 20 12.0835C20.6833 12.0835 21.25 12.6502 21.25 13.3335V21.6668C21.25 22.3502 20.6833 22.9168 20 22.9168Z" fill="#171717"/>
<path d="M24.8158 5.75016H15.1824C14.5158 5.75016 13.9824 5.21683 13.9824 4.55016C13.9824 3.8835 14.5158 3.3335 15.1824 3.3335H24.8158C25.4824 3.3335 26.0158 3.86683 26.0158 4.5335C26.0158 5.20016 25.4824 5.75016 24.8158 5.75016Z" fill="#171717"/>
<path opacity="0.4" d="M25.0008 33.2833V28.3833C25.0008 26.2666 26.2674 24.9999 28.3841 24.9999H33.2841C33.6008 24.9999 33.8841 25.0333 34.1674 25.0999C34.3508 24.1666 34.4508 23.1999 34.4508 22.2166C34.4508 14.2499 27.9674 7.7666 20.0008 7.7666C12.0341 7.7666 5.55078 14.2499 5.55078 22.2166C5.55078 30.1833 12.0341 36.6666 20.0008 36.6666C22.0174 36.6666 23.9341 36.2499 25.6841 35.4999C25.2508 34.9333 25.0008 34.1999 25.0008 33.2833Z" fill="#171717"/>
<path d="M33.2833 25H28.3833C26.2667 25 25 26.2667 25 28.3833V33.2833C25 35.4 26.2667 36.6667 28.3833 36.6667H33.2833C35.4 36.6667 36.6667 35.4 36.6667 33.2833V28.3833C36.6667 26.2667 35.4 25 33.2833 25ZM32.8167 32.4333L30.85 33.5667C30.45 33.8 30.05 33.9167 29.6833 33.9167C29.4 33.9167 29.15 33.85 28.9167 33.7167C28.3833 33.4 28.0833 32.7833 28.0833 31.9667V29.7C28.0833 28.8833 28.3833 28.2667 28.9167 27.95C29.45 27.6333 30.1333 27.7 30.85 28.1L32.8167 29.2333C33.5167 29.65 33.9167 30.2167 33.9167 30.8333C33.9167 31.45 33.5333 32.0167 32.8167 32.4333Z" fill="#171717"/>
</svg>
