<svg width="40" height="40" viewBox="0 0 40 40" fill="none" xmlns="http://www.w3.org/2000/svg">
<path d="M25.0007 10.2501H10.0007C6.31732 10.2501 3.33398 13.2334 3.33398 16.9167V10.9C3.33398 7.5 6.08399 4.75 9.48399 4.75H18.8506C22.2506 4.75 25.0007 6.85008 25.0007 10.2501Z" fill="#171717"/>
<path opacity="0.4" d="M29.1339 20.3333C28.3006 21.15 27.9007 22.3833 28.234 23.6333C28.6507 25.1833 30.184 26.1666 31.784 26.1666H33.334V28.5833C33.334 32.2667 30.3506 35.25 26.6673 35.25H10.0007C6.31732 35.25 3.33398 32.2667 3.33398 28.5833V16.9167C3.33398 13.2333 6.31732 10.25 10.0007 10.25H26.6673C30.334 10.25 33.334 13.25 33.334 16.9167V19.3333H31.534C30.6006 19.3333 29.7506 19.7 29.1339 20.3333Z" fill="#171717"/>
<path d="M36.6677 21.0335V24.4669C36.6677 25.4002 35.901 26.1669 34.951 26.1669H31.7343C29.9343 26.1669 28.2843 24.8502 28.1343 23.0502C28.0343 22.0002 28.4343 21.0169 29.1343 20.3336C29.751 19.7002 30.601 19.3335 31.5343 19.3335H34.951C35.901 19.3335 36.6677 20.1002 36.6677 21.0335Z" fill="#171717"/>
<path d="M21.666 19.8335H11.666C10.9827 19.8335 10.416 19.2668 10.416 18.5835C10.416 17.9002 10.9827 17.3335 11.666 17.3335H21.666C22.3493 17.3335 22.916 17.9002 22.916 18.5835C22.916 19.2668 22.3493 19.8335 21.666 19.8335Z" fill="#171717"/>
</svg>
