<svg width="212" height="212" viewBox="0 0 212 212" fill="none" xmlns="http://www.w3.org/2000/svg">
<rect width="212" height="212" rx="50" fill="white"/>
<path d="M64 82.6667L78 68.6667H92C92 70.5052 92.3621 72.3257 93.0657 74.0242C93.7693 75.7228 94.8005 77.2661 96.1005 78.5662C97.4005 79.8662 98.9439 80.8974 100.642 81.601C102.341 82.3045 104.161 82.6667 106 82.6667C107.839 82.6667 109.659 82.3045 111.358 81.601C113.056 80.8974 114.599 79.8662 115.899 78.5662C117.2 77.2661 118.231 75.7228 118.934 74.0242C119.638 72.3257 120 70.5052 120 68.6667H134L148 82.6667L145.667 106L134 99V143.333H78V99L66.3333 106L64 82.6667Z" stroke="#001A72" stroke-width="7" stroke-linecap="square" stroke-linejoin="round"/>
</svg>
