<svg width="110" height="110" viewBox="0 0 110 110" fill="none" xmlns="http://www.w3.org/2000/svg">
<path opacity="0.4" d="M54.9994 100.879C80.3124 100.879 100.833 80.3588 100.833 55.0457C100.833 29.7327 80.3124 9.2124 54.9994 9.2124C29.6863 9.2124 9.16602 29.7327 9.16602 55.0457C9.16602 80.3588 29.6863 100.879 54.9994 100.879Z" fill="#88A4BA"/>
<path d="M55 31.8081C45.5125 31.8081 37.8125 39.5081 37.8125 48.9956C37.8125 58.2998 45.1 65.8623 54.7708 66.1373C54.9083 66.1373 55.0917 66.1373 55.1833 66.1373C55.275 66.1373 55.4125 66.1373 55.5042 66.1373C55.55 66.1373 55.5958 66.1373 55.5958 66.1373C64.8542 65.8164 72.1417 58.2998 72.1875 48.9956C72.1875 39.5081 64.4875 31.8081 55 31.8081Z" fill="#171717"/>
<path d="M86.0758 88.7334C77.9175 96.2501 67.0091 100.879 55.0008 100.879C42.9925 100.879 32.0841 96.2501 23.9258 88.7334C25.0258 84.5626 28.0049 80.7584 32.3591 77.8251C44.8716 69.4834 65.2216 69.4834 77.6425 77.8251C82.0425 80.7584 84.9758 84.5626 86.0758 88.7334Z" fill="#171717"/>
</svg>
