<svg width="60" height="60" viewBox="0 0 60 60" fill="none" xmlns="http://www.w3.org/2000/svg">
<path d="M37.5 15.3751H15C9.475 15.3751 5 19.8501 5 25.3751V16.35C5 11.25 9.12501 7.125 14.225 7.125H28.275C33.375 7.125 37.5 10.2751 37.5 15.3751Z" fill="#DDDDDD"/>
<path opacity="0.4" d="M43.7 30.5C42.45 31.725 41.85 33.5749 42.35 35.4499C42.975 37.7749 45.275 39.25 47.675 39.25H50V42.875C50 48.4 45.525 52.875 40 52.875H15C9.475 52.875 5 48.4 5 42.875V25.375C5 19.85 9.475 15.375 15 15.375H40C45.5 15.375 50 19.875 50 25.375V28.9999H47.3C45.9 28.9999 44.625 29.55 43.7 30.5Z" fill="#DDDDDD"/>
<path d="M54.9986 31.55V36.7C54.9986 38.1 53.8485 39.2501 52.4235 39.2501H47.5985C44.8985 39.2501 42.4236 37.2751 42.1986 34.5751C42.0486 33.0001 42.6485 31.5251 43.6985 30.5001C44.6235 29.5501 45.8985 29 47.2985 29H52.4235C53.8485 29 54.9986 30.15 54.9986 31.55Z" fill="#DDDDDD"/>
<path d="M32.5 29.75H17.5C16.475 29.75 15.625 28.9 15.625 27.875C15.625 26.85 16.475 26 17.5 26H32.5C33.525 26 34.375 26.85 34.375 27.875C34.375 28.9 33.525 29.75 32.5 29.75Z" fill="#DDDDDD"/>
</svg>
